<?xml version="1.0" standalone="no"?>
<!DOCTYPE svg PUBLIC "-//W3C//DTD SVG 20010904//EN"
 "http://www.w3.org/TR/2001/REC-SVG-20010904/DTD/svg10.dtd">
<svg version="1.0" xmlns="http://www.w3.org/2000/svg"
 width="16.000000pt" height="16.000000pt" viewBox="0 0 16.000000 16.000000"
 preserveAspectRatio="xMidYMid meet">
<metadata>
Created by potrace 1.11, written by Peter Selinger 2001-2013
</metadata>
<g transform="translate(0.000000,16.000000) scale(0.002649,-0.002649)"
fill="#000000" stroke="none">
<path d="M10 3020 l0 -3010 3010 0 3010 0 0 3010 0 3010 -3010 0 -3010 0 0
-3010z m1874 2956 c4 -6 262 -673 571 -1481 l563 -1470 523 -2 524 -3 -88 45
c-423 215 -722 619 -828 1115 -30 139 -33 426 -6 568 116 621 553 1082 1142
1207 122 26 375 31 513 11 285 -42 494 -141 686 -326 103 -99 160 -170 211
-263 l37 -67 -183 -120 c-101 -66 -186 -120 -190 -120 -3 0 -27 36 -52 79 -92
158 -236 280 -403 340 -243 88 -528 77 -741 -30 -488 -245 -697 -942 -449
-1503 123 -277 369 -495 641 -567 116 -31 316 -31 440 -1 222 55 442 218 535
394 18 35 34 64 35 66 1 1 89 -49 196 -111 139 -82 194 -119 193 -131 -4 -42
-103 -185 -189 -271 -125 -126 -240 -201 -465 -302 -19 -9 87 -12 443 -12
l467 -1 -2 -1492 -3 -1493 -2985 0 -2985 0 -3 1493 -2 1492 109 0 c78 0 110 4
114 13 42 107 1200 2934 1206 2946 8 15 30 16 213 13 145 -3 205 -7 212 -16z"/>
<path d="M1414 4804 c-137 -345 -250 -630 -252 -634 -3 -7 959 -22 966 -15 4
4 -448 1256 -458 1268 -3 4 -119 -274 -256 -619z"/>
<path d="M1060 3785 c-8 -19 -287 -728 -297 -752 -4 -10 175 -13 875 -13 l880
0 -145 383 c-79 210 -147 385 -151 389 -4 3 -265 8 -581 10 -566 3 -574 3
-581 -17z"/>
<path d="M801 2065 l-751 -925 0 -210 0 -210 675 0 675 0 0 -335 0 -335 245 0
245 0 0 335 0 335 195 0 195 0 0 210 0 210 -195 0 -195 0 0 925 0 925 -169 0
-169 0 -751 -925z m649 -360 l0 -565 -450 0 c-247 0 -450 3 -450 6 0 7 892
1124 897 1124 2 0 3 -254 3 -565z"/>
<path d="M4521 2065 l-751 -925 0 -210 0 -210 675 0 675 0 0 -335 0 -335 245
0 245 0 0 335 0 335 195 0 195 0 0 210 0 210 -195 0 -195 0 0 925 0 925 -169
0 -169 0 -751 -925z m649 -360 l0 -565 -450 0 c-247 0 -450 3 -450 6 0 7 892
1124 897 1124 2 0 3 -254 3 -565z"/>
<path d="M3011 2880 c-156 -22 -298 -90 -413 -198 -118 -111 -205 -262 -248
-432 -31 -118 -38 -322 -16 -448 81 -466 450 -760 881 -703 334 45 592 296
672 657 27 121 25 370 -5 488 -66 264 -234 475 -458 577 -117 53 -282 77 -413
59z m274 -337 c71 -36 162 -128 198 -199 49 -97 69 -181 74 -315 7 -160 -11
-261 -68 -377 -139 -286 -466 -345 -672 -123 -108 117 -150 245 -151 456 -1
158 13 223 68 342 53 112 128 185 235 230 49 21 69 23 156 20 88 -3 107 -7
160 -34z"/>
</g>
</svg>
